<svg width="26" height="26" viewBox="0 0 26 26" fill="none" xmlns="http://www.w3.org/2000/svg">
<path d="M25.1437 9.3669L22.7812 7.57519V2.9544C22.7812 2.84251 22.7368 2.7352 22.6577 2.65609C22.5786 2.57697 22.4713 2.53252 22.3594 2.53252H16.1355L12.9094 0.0856472C12.836 0.0300766 12.7466 0 12.6546 0C12.5626 0 12.4731 0.0300766 12.3997 0.0856472L9.17705 2.53252H2.95312C2.84124 2.53252 2.73393 2.57697 2.65481 2.65609C2.5757 2.7352 2.53125 2.84251 2.53125 2.9544V7.57562L0.16875 9.3669C0.116355 9.40619 0.0738283 9.45715 0.0445385 9.51573C0.0152487 9.57431 0 9.6389 0 9.7044V24.8919C0 25.0038 0.0444474 25.1111 0.123564 25.1902C0.202681 25.2693 0.309987 25.3138 0.421875 25.3138H24.8906C25.0025 25.3138 25.1098 25.2693 25.1889 25.1902C25.2681 25.1111 25.3125 25.0038 25.3125 24.8919V9.7044C25.3125 9.6389 25.2973 9.57431 25.268 9.51573C25.2387 9.45715 25.1961 9.40619 25.1437 9.3669ZM0.84375 10.5541L9.73434 17.2981L0.84375 24.0422V10.5541ZM12.6562 16.1401L23.6364 24.47H1.67611L12.6562 16.1401ZM15.5782 17.2981L24.4688 10.5541V24.0422L15.5782 17.2981ZM24.1924 9.7044L22.7812 10.7747V8.63452L24.1924 9.7044ZM12.6562 0.9526L14.739 2.53252H10.5735L12.6562 0.9526ZM21.9375 3.37627V11.4147L14.88 16.7679L12.9094 15.2731C12.836 15.2176 12.7466 15.1875 12.6546 15.1875C12.5626 15.1875 12.4731 15.2176 12.3997 15.2731L10.4309 16.767L3.375 11.4147V3.37627H21.9375ZM2.53125 10.7747L1.12008 9.7044L2.53125 8.6341V10.7747Z" fill="#06679E"/>
<path d="M12.6562 13.0794H13.9219C14.0338 13.0794 14.1411 13.0349 14.2202 12.9558C14.2993 12.8767 14.3437 12.7694 14.3437 12.6575C14.3437 12.5456 14.2993 12.4383 14.2202 12.3592C14.1411 12.2801 14.0338 12.2356 13.9219 12.2356H12.6562C12.0722 12.2356 11.5012 12.0624 11.0156 11.738C10.5299 11.4135 10.1514 10.9522 9.9279 10.4126C9.70439 9.87302 9.64591 9.27924 9.75986 8.70639C9.8738 8.13354 10.1551 7.60735 10.5681 7.19434C10.9811 6.78134 11.5073 6.50008 12.0801 6.38614C12.653 6.27219 13.2467 6.33067 13.7863 6.55419C14.326 6.7777 14.7872 7.15621 15.1117 7.64185C15.4362 8.12749 15.6094 8.69844 15.6094 9.28252V10.1263C15.6094 10.2382 15.5649 10.3455 15.4858 10.4246C15.4067 10.5037 15.2994 10.5481 15.1875 10.5481C15.0756 10.5481 14.9683 10.5037 14.8892 10.4246C14.8101 10.3455 14.7656 10.2382 14.7656 10.1263V9.28252C14.7679 8.79332 14.601 8.31838 14.2931 7.93825C13.9851 7.55812 13.5552 7.29622 13.0761 7.19698C12.5971 7.09773 12.0985 7.16724 11.6649 7.39373C11.2313 7.62022 10.8893 7.98973 10.6971 8.43959C10.5049 8.88944 10.4742 9.39194 10.6103 9.86185C10.7463 10.3318 11.0407 10.7401 11.4435 11.0177C11.8464 11.2953 12.3328 11.4249 12.8204 11.3847C13.3079 11.3445 13.7666 11.1369 14.1185 10.797C14.2638 11.0299 14.481 11.2091 14.7373 11.3075C14.9936 11.4059 15.275 11.4181 15.5388 11.3423C15.8027 11.2665 16.0346 11.1068 16.1996 10.8874C16.3646 10.668 16.4536 10.4008 16.4531 10.1263V9.28252C16.4531 8.53157 16.2304 7.79748 15.8132 7.17309C15.396 6.54869 14.803 6.06204 14.1092 5.77466C13.4155 5.48729 12.652 5.4121 11.9155 5.5586C11.179 5.7051 10.5024 6.06672 9.97144 6.59772C9.44044 7.12872 9.07882 7.80526 8.93232 8.54178C8.78581 9.27831 8.861 10.0417 9.14838 10.7355C9.43576 11.4293 9.92241 12.0223 10.5468 12.4395C11.1712 12.8567 11.9053 13.0794 12.6562 13.0794ZM12.6562 10.5481C12.4059 10.5481 12.1612 10.4739 11.9531 10.3348C11.745 10.1958 11.5827 9.99811 11.487 9.76685C11.3912 9.53559 11.3661 9.28111 11.4149 9.03561C11.4638 8.7901 11.5843 8.56459 11.7613 8.38759C11.9383 8.21058 12.1638 8.09005 12.4093 8.04121C12.6548 7.99238 12.9093 8.01744 13.1406 8.11323C13.3718 8.20902 13.5695 8.37124 13.7086 8.57937C13.8476 8.78751 13.9219 9.0322 13.9219 9.28252C13.9219 9.61818 13.7885 9.9401 13.5512 10.1774C13.3138 10.4148 12.9919 10.5481 12.6562 10.5481Z" fill="#06679E"/>
</svg>
