<svg width="27" height="27" viewBox="0 0 27 27" fill="none" xmlns="http://www.w3.org/2000/svg">
<g clip-path="url(#clip0)">
<path d="M17.786 7.1552C17.786 4.78778 15.867 2.8688 13.4998 2.8688C11.1324 2.8688 9.21342 4.78778 9.21342 7.1552C9.21342 9.52243 11.1324 11.4414 13.4998 11.4414C15.8659 11.4387 17.7835 9.52126 17.786 7.1552ZM10.1134 7.1552C10.1134 5.28486 11.6297 3.76882 13.4998 3.76882C15.37 3.76882 16.8862 5.28486 16.8862 7.1552C16.8862 9.02535 15.37 10.5414 13.4998 10.5414C11.6305 10.5394 10.1154 9.02457 10.1134 7.1552Z" fill="url(#paint0_linear)"/>
<path d="M13.4998 27.0005C20.8179 27.0005 26.55 24.826 26.55 22.0504C26.55 19.6392 22.306 17.6677 16.1801 17.2019L19.5173 12.4287C20.5783 10.923 21.1484 9.12652 21.1499 7.28469C21.1246 4.30046 19.2446 1.64749 16.4374 0.634778L16.1098 0.509385C14.428 -0.129883 12.5771 -0.168556 10.8699 0.399618C7.91535 1.33616 5.89266 4.05964 5.84969 7.15872V7.28469C5.85125 9.12652 6.42138 10.9228 7.48233 12.4283L10.8197 17.202C4.69362 17.6677 0.4496 19.6392 0.4496 22.0504C0.4496 24.826 6.18173 27.0005 13.4998 27.0005ZM6.74971 7.28469V7.15872C6.79287 4.44734 8.56712 2.0684 11.1535 1.25373C12.6631 0.750795 14.3002 0.78478 15.7877 1.35002L16.1167 1.47561C18.5737 2.35688 20.2228 4.67449 20.2499 7.28469C20.2482 8.94214 19.7349 10.5584 18.7798 11.9131L13.4998 19.4652L8.21985 11.9131C7.26495 10.5586 6.75146 8.94214 6.74971 7.28469ZM11.2785 18.071C11.3217 18.0661 11.3638 18.0546 11.4037 18.0372L13.1313 20.5082C13.2738 20.7117 13.5545 20.7611 13.758 20.6185C13.801 20.5884 13.8383 20.5511 13.8684 20.5082L15.5959 18.0372C15.6356 18.0546 15.6778 18.0661 15.7209 18.071C21.9361 18.471 25.65 20.4087 25.65 22.0504C25.65 23.966 20.6599 26.1004 13.4998 26.1004C6.33974 26.1004 1.34962 23.966 1.34962 22.0504C1.34962 20.4087 5.06354 18.471 11.2785 18.071Z" fill="url(#paint1_linear)"/>
</g>
<defs>
<linearGradient id="paint0_linear" x1="6.62228" y1="0.277681" x2="28.0094" y2="21.6648" gradientUnits="userSpaceOnUse">
<stop stop-color="#06679E"/>
<stop offset="0.437" stop-color="#06679E"/>
<stop offset="1" stop-color="#06679E"/>
</linearGradient>
<linearGradient id="paint1_linear" x1="2.00445" y1="4.8955" x2="23.3915" y2="26.2826" gradientUnits="userSpaceOnUse">
<stop stop-color="#06679E"/>
<stop offset="0.437" stop-color="#06679E"/>
<stop offset="1" stop-color="#06679E"/>
</linearGradient>
<clipPath id="clip0">
<rect width="27" height="27" fill="white"/>
</clipPath>
</defs>
</svg>
