<svg width="35" height="35" viewBox="0 0 35 35" fill="none" xmlns="http://www.w3.org/2000/svg">
<g clip-path="url(#clip0)">
<path d="M34.3 10.2279L24.7562 0.677727C23.8566 -0.225507 22.2789 -0.224761 21.381 0.676981L18.2 3.86007C17.7487 4.31013 17.5001 4.91022 17.5001 5.54916C17.5001 6.18811 17.7487 6.7882 18.1993 7.23751L18.2946 7.33288C16.375 8.65888 12.1438 11.121 7.15933 11.121C6.80436 11.121 6.49205 11.3565 6.39421 11.6986L0.0304087 33.9859C-0.0488628 34.2634 0.0288427 34.5626 0.233174 34.7671C0.384633 34.9187 0.587398 35.0003 0.795607 35.0003C0.868614 35.0003 0.942442 34.9902 1.01388 34.97L23.2865 28.6021C23.6283 28.5042 23.8637 28.1917 23.8637 27.8365C23.8637 22.8487 26.3241 18.6147 27.6493 16.6938L27.7438 16.7884C28.1936 17.24 28.7933 17.4888 29.4318 17.4888C30.0703 17.4888 30.67 17.24 31.119 16.7892L34.3 13.6062C34.7514 13.1561 34.9999 12.556 34.9999 11.9171C34.9999 11.278 34.7514 10.678 34.3 10.2279ZM22.2836 27.2384L3.5285 32.5967L12.712 23.4132C13.1852 23.6926 13.7299 23.864 14.3182 23.864C16.073 23.864 17.5001 22.437 17.5001 20.6821C17.5001 18.9273 16.0731 17.5003 14.3182 17.5003C12.5634 17.5003 11.1364 18.9273 11.1364 20.6821C11.1364 21.2704 11.3078 21.8152 11.5871 22.2884L2.40363 31.4719L7.76196 12.7168C13.1333 12.5233 17.5731 9.81648 19.4368 8.49347L26.5069 15.5636C25.1839 17.4273 22.477 21.8671 22.2836 27.2384ZM12.7274 20.6822C12.7274 19.8052 13.4413 19.0913 14.3182 19.0913C15.1952 19.0913 15.9091 19.8052 15.9091 20.6822C15.9091 21.5592 15.1952 22.2731 14.3182 22.2731C13.4413 22.2731 12.7274 21.5592 12.7274 20.6822ZM33.176 12.4946L29.9934 15.6772C29.6951 15.9771 29.1692 15.9778 28.8694 15.6765L19.3232 6.13031C19.1733 5.98117 19.0909 5.78153 19.0909 5.5687C19.0909 5.35587 19.1733 5.15624 19.324 5.00627L22.5065 1.8237C22.6557 1.6738 22.8553 1.5914 23.0682 1.5914C23.281 1.5914 23.4806 1.67373 23.6306 1.82444L33.176 11.3698L33.1767 11.3706C33.3266 11.5197 33.409 11.7194 33.409 11.9322C33.409 12.1451 33.3267 12.3447 33.176 12.4946Z" fill="#06679E"/>
</g>
<defs>
<clipPath id="clip0">
<rect width="35" height="35" fill="white"/>
</clipPath>
</defs>
</svg>
