<svg width="27" height="27" viewBox="0 0 27 27" fill="none" xmlns="http://www.w3.org/2000/svg">
<g clip-path="url(#clip0)">
<path d="M26.2915 20.83L20.8267 17.1855C20.1331 16.7268 19.2035 16.8777 18.6908 17.5324L17.0989 19.5792C16.8944 19.8489 16.5225 19.9271 16.2265 19.7627L15.9237 19.5958C14.9199 19.0487 13.6709 18.3675 11.1544 15.8501C8.63796 13.3327 7.95541 12.0828 7.40827 11.0808L7.24223 10.778C7.07556 10.4821 7.15233 10.1087 7.42219 9.90246L9.46756 8.31107C10.122 7.79831 10.2732 6.86895 9.81492 6.17522L6.17046 0.710329C5.70082 0.00389882 4.7586 -0.208167 4.03155 0.228883L1.74633 1.60162C1.0283 2.02375 0.501511 2.7074 0.276422 3.50932C-0.546482 6.50766 0.0725802 11.6824 7.69536 19.306C13.7591 25.3693 18.2733 26.9999 21.3761 26.9999C22.0901 27.0029 22.8014 26.91 23.4908 26.7237C24.2928 26.4988 24.9766 25.972 25.3985 25.2537L26.7726 22.9699C27.2103 22.2427 26.9983 21.2999 26.2915 20.83ZM25.9973 22.5082L24.6263 24.7934C24.3234 25.3118 23.8316 25.693 23.254 25.8571C20.486 26.617 15.6502 25.9876 8.33198 18.6694C1.0138 11.3512 0.384405 6.51578 1.14435 3.74738C1.30865 3.16907 1.69028 2.67666 2.20932 2.37327L4.49455 1.00233C4.81001 0.812513 5.21896 0.904521 5.42274 1.21107L7.40247 4.18332L9.06409 6.67549C9.26308 6.9764 9.1977 7.37971 8.91382 7.60237L6.86798 9.19377C6.24538 9.66983 6.06759 10.5312 6.45091 11.2149L6.61336 11.51C7.1884 12.5647 7.90332 13.8767 10.5134 16.4863C13.1235 19.0959 14.435 19.8109 15.4892 20.3859L15.7848 20.5487C16.4684 20.932 17.3298 20.7543 17.8059 20.1317L19.3973 18.0858C19.62 17.8021 20.0232 17.7368 20.3242 17.9356L25.7886 21.58C26.0954 21.7837 26.1874 22.1928 25.9973 22.5082Z" fill="#06679E"/>
<path d="M15.2992 4.50232C19.5216 4.50702 22.9434 7.92881 22.9481 12.1512C22.9481 12.3997 23.1495 12.6011 23.398 12.6011C23.6465 12.6011 23.8479 12.3997 23.8479 12.1512C23.8427 7.43202 20.0184 3.60766 15.2992 3.60249C15.0507 3.60249 14.8493 3.80391 14.8493 4.05241C14.8493 4.30091 15.0507 4.50232 15.2992 4.50232Z" fill="#06679E"/>
<path d="M15.2992 7.20192C18.0313 7.20514 20.2453 9.41913 20.2485 12.1512C20.2485 12.3997 20.45 12.6011 20.6984 12.6011C20.9469 12.6011 21.1483 12.3997 21.1483 12.1512C21.1446 8.92234 18.528 6.30578 15.2992 6.30209C15.0507 6.30209 14.8493 6.50351 14.8493 6.75201C14.8493 7.00051 15.0507 7.20192 15.2992 7.20192Z" fill="#06679E"/>
<path d="M15.2992 9.90152C16.541 9.903 17.5474 10.9093 17.5489 12.1512C17.5489 12.3997 17.7504 12.6011 17.9988 12.6011C18.2473 12.6011 18.4487 12.3997 18.4487 12.1512C18.4467 10.4126 17.0378 9.00364 15.2992 9.00169C15.0507 9.00169 14.8493 9.20311 14.8493 9.45161C14.8493 9.70011 15.0507 9.90152 15.2992 9.90152Z" fill="#06679E"/>
</g>
<defs>
<clipPath id="clip0">
<rect width="27" height="27" fill="white"/>
</clipPath>
</defs>
</svg>
