<svg width="35" height="35" viewBox="0 0 35 35" fill="none" xmlns="http://www.w3.org/2000/svg">
<path d="M30.0781 4.375H27.8906V3.28125C27.8906 2.70109 27.6602 2.14469 27.2499 1.73445C26.8397 1.32422 26.2833 1.09375 25.7031 1.09375C25.123 1.09375 24.5666 1.32422 24.1563 1.73445C23.7461 2.14469 23.5156 2.70109 23.5156 3.28125V4.375H19.1406V3.28125C19.1406 2.70109 18.9102 2.14469 18.4999 1.73445C18.0897 1.32422 17.5333 1.09375 16.9531 1.09375C16.373 1.09375 15.8166 1.32422 15.4063 1.73445C14.9961 2.14469 14.7656 2.70109 14.7656 3.28125V4.375H10.3906V3.28125C10.3906 2.70109 10.1602 2.14469 9.74992 1.73445C9.33968 1.32422 8.78329 1.09375 8.20312 1.09375C7.62296 1.09375 7.06656 1.32422 6.65633 1.73445C6.24609 2.14469 6.01563 2.70109 6.01562 3.28125V4.375H3.82812C3.10319 4.37587 2.4082 4.66423 1.89559 5.17684C1.38298 5.68945 1.09462 6.38444 1.09375 7.10938V30.0781C1.09462 30.8031 1.38298 31.4981 1.89559 32.0107C2.4082 32.5233 3.10319 32.8116 3.82812 32.8125H20.2344C20.3794 32.8125 20.5185 32.7549 20.6211 32.6523C20.7236 32.5498 20.7812 32.4107 20.7812 32.2656C20.7812 32.1206 20.7236 31.9815 20.6211 31.8789C20.5185 31.7764 20.3794 31.7188 20.2344 31.7188H3.82812C3.393 31.7188 2.9757 31.5459 2.66803 31.2382C2.36035 30.9305 2.1875 30.5132 2.1875 30.0781V12.0312H31.7188V19.6875C31.7188 19.8325 31.7764 19.9716 31.8789 20.0742C31.9815 20.1768 32.1206 20.2344 32.2656 20.2344C32.4107 20.2344 32.5498 20.1768 32.6523 20.0742C32.7549 19.9716 32.8125 19.8325 32.8125 19.6875V7.10938C32.8116 6.38444 32.5233 5.68945 32.0107 5.17684C31.4981 4.66423 30.8031 4.37587 30.0781 4.375V4.375ZM24.6094 3.28125C24.6094 2.99117 24.7246 2.71297 24.9297 2.50785C25.1348 2.30273 25.413 2.1875 25.7031 2.1875C25.9932 2.1875 26.2714 2.30273 26.4765 2.50785C26.6816 2.71297 26.7969 2.99117 26.7969 3.28125V6.5625C26.7969 6.85258 26.6816 7.13078 26.4765 7.3359C26.2714 7.54102 25.9932 7.65625 25.7031 7.65625C25.413 7.65625 25.1348 7.54102 24.9297 7.3359C24.7246 7.13078 24.6094 6.85258 24.6094 6.5625V3.28125ZM15.8594 3.28125C15.8594 2.99117 15.9746 2.71297 16.1797 2.50785C16.3848 2.30273 16.663 2.1875 16.9531 2.1875C17.2432 2.1875 17.5214 2.30273 17.7265 2.50785C17.9316 2.71297 18.0469 2.99117 18.0469 3.28125V6.5625C18.0469 6.85258 17.9316 7.13078 17.7265 7.3359C17.5214 7.54102 17.2432 7.65625 16.9531 7.65625C16.663 7.65625 16.3848 7.54102 16.1797 7.3359C15.9746 7.13078 15.8594 6.85258 15.8594 6.5625V3.28125ZM7.10938 3.28125C7.10938 2.99117 7.22461 2.71297 7.42973 2.50785C7.63485 2.30273 7.91304 2.1875 8.20312 2.1875C8.49321 2.1875 8.7714 2.30273 8.97652 2.50785C9.18164 2.71297 9.29688 2.99117 9.29688 3.28125V6.5625C9.29688 6.85258 9.18164 7.13078 8.97652 7.3359C8.7714 7.54102 8.49321 7.65625 8.20312 7.65625C7.91304 7.65625 7.63485 7.54102 7.42973 7.3359C7.22461 7.13078 7.10938 6.85258 7.10938 6.5625V3.28125ZM2.1875 10.9375V7.10938C2.1875 6.67425 2.36035 6.25695 2.66803 5.94928C2.9757 5.6416 3.393 5.46875 3.82812 5.46875H6.01562V6.5625C6.01563 7.14266 6.24609 7.69906 6.65633 8.1093C7.06656 8.51953 7.62296 8.75 8.20312 8.75C8.78329 8.75 9.33968 8.51953 9.74992 8.1093C10.1602 7.69906 10.3906 7.14266 10.3906 6.5625V5.46875H14.7656V6.5625C14.7656 7.14266 14.9961 7.69906 15.4063 8.1093C15.8166 8.51953 16.373 8.75 16.9531 8.75C17.5333 8.75 18.0897 8.51953 18.4999 8.1093C18.9102 7.69906 19.1406 7.14266 19.1406 6.5625V5.46875H23.5156V6.5625C23.5156 7.14266 23.7461 7.69906 24.1563 8.1093C24.5666 8.51953 25.123 8.75 25.7031 8.75C26.2833 8.75 26.8397 8.51953 27.2499 8.1093C27.6602 7.69906 27.8906 7.14266 27.8906 6.5625V5.46875H30.0781C30.5132 5.46875 30.9305 5.6416 31.2382 5.94928C31.5459 6.25695 31.7188 6.67425 31.7188 7.10938V10.9375H2.1875Z" fill="#06679E"/>
<path d="M33.3595 22.4219C33.5045 22.4219 33.6436 22.3642 33.7462 22.2617C33.8487 22.1591 33.9063 22.02 33.9063 21.875C33.9063 21.7299 33.8487 21.5908 33.7462 21.4883C33.6436 21.3857 33.5045 21.3281 33.3595 21.3281H31.172C31.0269 21.3281 30.8878 21.3857 30.7853 21.4883C30.6827 21.5908 30.6251 21.7299 30.6251 21.875V24.0625C30.6251 24.2075 30.6827 24.3466 30.7853 24.4492C30.8878 24.5517 31.0269 24.6094 31.172 24.6094C31.317 24.6094 31.4561 24.5517 31.5587 24.4492C31.6612 24.3466 31.7188 24.2075 31.7188 24.0625V23.3477C32.5405 24.5246 32.9131 25.957 32.7692 27.3851C32.6254 28.8131 31.9745 30.1424 30.9346 31.1317C29.8947 32.1211 28.5348 32.705 27.1013 32.7777C25.6678 32.8503 24.2558 32.4069 23.1212 31.5277C21.9867 30.6485 21.2047 29.3919 20.9172 27.9857C20.6297 26.5795 20.8557 25.1168 21.5541 23.8628C22.2525 22.6089 23.3772 21.6468 24.7241 21.151C26.0711 20.6551 27.5511 20.6584 28.8959 21.1602C29.0319 21.211 29.1824 21.2057 29.3145 21.1454C29.4465 21.0851 29.5492 20.9749 29.6 20.8389C29.6507 20.703 29.6454 20.5524 29.5852 20.4203C29.5249 20.2883 29.4147 20.1856 29.2787 20.1348C27.6687 19.5319 25.895 19.5319 24.285 20.1348C22.675 20.7378 21.3376 21.9029 20.5198 23.4151C19.702 24.9272 19.4589 26.6843 19.8356 28.3617C20.2123 30.039 21.1832 31.5235 22.569 32.5408C23.9549 33.5581 25.662 34.0396 27.3752 33.8963C29.0884 33.753 30.6919 32.9946 31.8895 31.7612C33.0871 30.5278 33.7979 28.9027 33.8907 27.1861C33.9835 25.4694 33.4519 23.7772 32.3942 22.4219H33.3595Z" fill="#06679E"/>
<path d="M27.3438 25.2569V22.4219C27.3438 22.2768 27.2861 22.1377 27.1836 22.0352C27.081 21.9326 26.9419 21.875 26.7969 21.875C26.6518 21.875 26.5127 21.9326 26.4102 22.0352C26.3076 22.1377 26.25 22.2768 26.25 22.4219V25.2569C26.0213 25.3386 25.8135 25.47 25.6418 25.6418C25.47 25.8135 25.3386 26.0213 25.2569 26.25H23.5156C23.3706 26.25 23.2315 26.3076 23.1289 26.4102C23.0264 26.5127 22.9688 26.6518 22.9688 26.7969C22.9688 26.9419 23.0264 27.081 23.1289 27.1836C23.2315 27.2861 23.3706 27.3438 23.5156 27.3438H25.2569C25.3486 27.6049 25.5051 27.8384 25.7116 28.0227C25.9182 28.2069 26.1681 28.3357 26.4379 28.3971C26.7078 28.4585 26.9888 28.4505 27.2547 28.3738C27.5207 28.2971 27.7628 28.1542 27.9585 27.9585C28.1542 27.7628 28.2971 27.5207 28.3738 27.2547C28.4505 26.9888 28.4585 26.7078 28.3971 26.4379C28.3357 26.1681 28.2069 25.9182 28.0227 25.7116C27.8384 25.5051 27.6049 25.3486 27.3438 25.2569V25.2569ZM26.7969 27.3438C26.6887 27.3438 26.583 27.3117 26.493 27.2516C26.4031 27.1915 26.333 27.1061 26.2916 27.0062C26.2502 26.9062 26.2394 26.7963 26.2605 26.6902C26.2816 26.5841 26.3337 26.4867 26.4102 26.4102C26.4867 26.3337 26.5841 26.2816 26.6902 26.2605C26.7963 26.2394 26.9062 26.2502 27.0062 26.2916C27.1061 26.333 27.1915 26.4031 27.2516 26.493C27.3117 26.583 27.3438 26.6887 27.3438 26.7969C27.3438 26.9419 27.2861 27.081 27.1836 27.1836C27.081 27.2861 26.9419 27.3438 26.7969 27.3438Z" fill="#06679E"/>
<path d="M14.7656 18.0469H12.5781C12.288 18.0469 12.0098 17.9316 11.8047 17.7265C11.5996 17.5214 11.4844 17.2432 11.4844 16.9531V15.3125C11.4844 15.0224 11.5996 14.7442 11.8047 14.5391C12.0098 14.334 12.288 14.2188 12.5781 14.2188H14.7656C15.0557 14.2188 15.3339 14.334 15.539 14.5391C15.7441 14.7442 15.8594 15.0224 15.8594 15.3125V16.9531C15.8594 17.2432 15.7441 17.5214 15.539 17.7265C15.3339 17.9316 15.0557 18.0469 14.7656 18.0469ZM12.5781 15.3125V16.9531H14.7656V15.3125H12.5781Z" fill="#06679E"/>
<path d="M21.3281 18.0469H19.1406C18.8505 18.0469 18.5723 17.9316 18.3672 17.7265C18.1621 17.5214 18.0469 17.2432 18.0469 16.9531V15.3125C18.0469 15.0224 18.1621 14.7442 18.3672 14.5391C18.5723 14.334 18.8505 14.2188 19.1406 14.2188H21.3281C21.6182 14.2188 21.8964 14.334 22.1015 14.5391C22.3066 14.7442 22.4219 15.0224 22.4219 15.3125V16.9531C22.4219 17.2432 22.3066 17.5214 22.1015 17.7265C21.8964 17.9316 21.6182 18.0469 21.3281 18.0469ZM19.1406 15.3125V16.9531H21.3281V15.3125H19.1406Z" fill="#06679E"/>
<path d="M8.20312 18.0469H6.01562C5.72554 18.0469 5.44735 17.9316 5.24223 17.7265C5.03711 17.5214 4.92188 17.2432 4.92188 16.9531V15.3125C4.92188 15.0224 5.03711 14.7442 5.24223 14.5391C5.44735 14.334 5.72554 14.2188 6.01562 14.2188H8.20312C8.49321 14.2188 8.7714 14.334 8.97652 14.5391C9.18164 14.7442 9.29688 15.0224 9.29688 15.3125V16.9531C9.29688 17.2432 9.18164 17.5214 8.97652 17.7265C8.7714 17.9316 8.49321 18.0469 8.20312 18.0469ZM6.01562 15.3125V16.9531H8.20312V15.3125H6.01562Z" fill="#06679E"/>
<path d="M27.8906 18.0469H25.7031C25.413 18.0469 25.1348 17.9316 24.9297 17.7265C24.7246 17.5214 24.6094 17.2432 24.6094 16.9531V15.3125C24.6094 15.0224 24.7246 14.7442 24.9297 14.5391C25.1348 14.334 25.413 14.2188 25.7031 14.2188H27.8906C28.1807 14.2188 28.4589 14.334 28.664 14.5391C28.8691 14.7442 28.9844 15.0224 28.9844 15.3125V16.9531C28.9844 17.2432 28.8691 17.5214 28.664 17.7265C28.4589 17.9316 28.1807 18.0469 27.8906 18.0469ZM25.7031 15.3125V16.9531H27.8906V15.3125H25.7031Z" fill="#06679E"/>
<path d="M14.7656 24.0625H12.5781C12.288 24.0625 12.0098 23.9473 11.8047 23.7421C11.5996 23.537 11.4844 23.2588 11.4844 22.9688V21.3281C11.4844 21.038 11.5996 20.7598 11.8047 20.5547C12.0098 20.3496 12.288 20.2344 12.5781 20.2344H14.7656C15.0557 20.2344 15.3339 20.3496 15.539 20.5547C15.7441 20.7598 15.8594 21.038 15.8594 21.3281V22.9688C15.8594 23.2588 15.7441 23.537 15.539 23.7421C15.3339 23.9473 15.0557 24.0625 14.7656 24.0625ZM12.5781 21.3281V22.9688H14.7656V21.3281H12.5781Z" fill="#06679E"/>
<path d="M19.1406 24.0625C18.8505 24.0625 18.5723 23.9473 18.3672 23.7421C18.1621 23.537 18.0469 23.2588 18.0469 22.9688V21.3281C18.0469 21.038 18.1621 20.7598 18.3672 20.5547C18.5723 20.3496 18.8505 20.2344 19.1406 20.2344H20.7812C20.9263 20.2344 21.0654 20.292 21.1679 20.3946C21.2705 20.4971 21.3281 20.6362 21.3281 20.7812C21.3281 20.9263 21.2705 21.0654 21.1679 21.1679C21.0654 21.2705 20.9263 21.3281 20.7812 21.3281H19.1406V22.9688C19.2857 22.9688 19.4248 23.0264 19.5273 23.1289C19.6299 23.2315 19.6875 23.3706 19.6875 23.5156C19.6875 23.6607 19.6299 23.7998 19.5273 23.9023C19.4248 24.0049 19.2857 24.0625 19.1406 24.0625Z" fill="#06679E"/>
<path d="M8.20312 24.0625H6.01562C5.72554 24.0625 5.44735 23.9473 5.24223 23.7421C5.03711 23.537 4.92188 23.2588 4.92188 22.9688V21.3281C4.92188 21.038 5.03711 20.7598 5.24223 20.5547C5.44735 20.3496 5.72554 20.2344 6.01562 20.2344H8.20312C8.49321 20.2344 8.7714 20.3496 8.97652 20.5547C9.18164 20.7598 9.29688 21.038 9.29688 21.3281V22.9688C9.29688 23.2588 9.18164 23.537 8.97652 23.7421C8.7714 23.9473 8.49321 24.0625 8.20312 24.0625ZM6.01562 21.3281V22.9688H8.20312V21.3281H6.01562Z" fill="#06679E"/>
<path d="M14.7656 30.0781H12.5781C12.288 30.0781 12.0098 29.9629 11.8047 29.7578C11.5996 29.5527 11.4844 29.2745 11.4844 28.9844V27.3438C11.4844 27.0537 11.5996 26.7755 11.8047 26.5704C12.0098 26.3652 12.288 26.25 12.5781 26.25H14.7656C15.0557 26.25 15.3339 26.3652 15.539 26.5704C15.7441 26.7755 15.8594 27.0537 15.8594 27.3438V28.9844C15.8594 29.2745 15.7441 29.5527 15.539 29.7578C15.3339 29.9629 15.0557 30.0781 14.7656 30.0781ZM12.5781 27.3438V28.9844H14.7656V27.3438H12.5781Z" fill="#06679E"/>
<path d="M8.20312 30.0781H6.01562C5.72554 30.0781 5.44735 29.9629 5.24223 29.7578C5.03711 29.5527 4.92188 29.2745 4.92188 28.9844V27.3438C4.92188 27.0537 5.03711 26.7755 5.24223 26.5704C5.44735 26.3652 5.72554 26.25 6.01562 26.25H8.20312C8.49321 26.25 8.7714 26.3652 8.97652 26.5704C9.18164 26.7755 9.29688 27.0537 9.29688 27.3438V28.9844C9.29688 29.2745 9.18164 29.5527 8.97652 29.7578C8.7714 29.9629 8.49321 30.0781 8.20312 30.0781ZM6.01562 27.3438V28.9844H8.20312V27.3438H6.01562Z" fill="#06679E"/>
</svg>
