<svg width="35" height="35" viewBox="0 0 35 35" fill="none" xmlns="http://www.w3.org/2000/svg">
<path d="M31.216 16.7295L23.2575 12.8246C23.5909 11.1714 23.4983 9.46063 22.9883 7.85313C22.4784 6.24564 21.568 4.79428 20.3426 3.63558C18.3283 1.7332 15.6847 0.773984 12.8951 0.933124C10.4422 1.09913 8.13708 2.16517 6.42204 3.92665C5.12575 5.2423 4.22444 6.89512 3.82049 8.69737C3.41654 10.4996 3.52614 12.379 4.13685 14.1221C4.66564 15.6331 5.54973 16.9948 6.71468 18.0928C7.38778 18.7393 7.89714 19.5368 8.20059 20.4194C8.50404 21.302 8.59284 22.2442 8.45963 23.1679L8.35709 23.9517C8.34214 24.0328 8.34427 24.116 8.36334 24.1962C8.38242 24.2764 8.41802 24.3517 8.46786 24.4173C8.51771 24.4829 8.5807 24.5375 8.65282 24.5773C8.72493 24.6172 8.80458 24.6416 8.88667 24.649V28.6505C8.88646 28.9563 8.94687 29.2591 9.06438 29.5415C9.18189 29.8238 9.35419 30.0801 9.57132 30.2955C9.78845 30.5109 10.0461 30.6811 10.3294 30.7963C10.6127 30.9115 10.916 30.9695 11.2218 30.9668H15.8149C16.3719 30.9722 16.9123 30.7778 17.3383 30.4189L22.5929 34.0059C22.6607 34.0533 22.7412 34.0793 22.8239 34.0806C22.9061 34.0812 22.9866 34.057 23.0548 34.0111L28.5291 30.2823C30.1645 29.1683 31.4455 26.749 31.4455 24.7728V17.0978C31.4455 17.0211 31.424 16.9459 31.3834 16.8808C31.3428 16.8157 31.2848 16.7633 31.216 16.7295V16.7295ZM7.27824 17.4966C6.32555 16.6011 5.57637 15.5114 5.0814 14.3012C4.58643 13.0911 4.35724 11.7887 4.40933 10.4822C4.57722 5.88986 8.32817 2.05504 12.9454 1.75193C14.3541 1.66477 15.7638 1.90559 17.0637 2.45544C18.3635 3.00529 19.5181 3.84918 20.4367 4.92077C21.3552 5.99235 22.0126 7.2624 22.3572 8.63106C22.7018 9.99972 22.7243 11.4297 22.4227 12.8084L14.4406 16.7179C14.3726 16.7521 14.3157 16.8048 14.2765 16.87C14.2372 16.9352 14.2173 17.0102 14.2189 17.0863V23.8574H9.20016L9.27249 23.2905C9.42319 22.2358 9.32096 21.1604 8.97421 20.153C8.62747 19.1456 8.04616 18.2351 7.27824 17.4966ZM9.70718 24.6778H14.2189V24.7728C14.2216 25.4891 14.3572 26.1985 14.6188 26.8653H9.70718V24.6778ZM11.2218 30.1465C11.0237 30.1493 10.8271 30.1126 10.6433 30.0386C10.4595 29.9647 10.2923 29.8549 10.1513 29.7157C10.0104 29.5765 9.89851 29.4107 9.82226 29.2278C9.74601 29.045 9.70689 28.8488 9.70718 28.6507V27.6856H14.9777C15.3889 28.5248 15.9582 29.2768 16.6543 29.9004C16.4047 30.063 16.1128 30.1486 15.8149 30.1465H11.2218ZM30.6252 24.7728C30.6252 26.4766 29.4777 28.6444 28.0673 29.6052L22.8241 33.1775L17.581 29.6051C16.8192 29.0863 16.1079 28.1802 15.6149 27.1193C15.2389 26.3094 15.0395 25.4761 15.0395 24.7728V17.3422L22.8325 13.5254L30.6254 17.3535L30.6252 24.7728Z" fill="#06679E"/>
<path d="M19.6356 22.8377C19.5972 22.7998 19.5516 22.7698 19.5014 22.7495C19.4513 22.7293 19.3977 22.7191 19.3437 22.7196C19.2896 22.7202 19.2362 22.7314 19.1865 22.7526C19.1368 22.7738 19.0918 22.8047 19.054 22.8434C19.0163 22.8821 18.9866 22.9278 18.9666 22.9781C18.9466 23.0283 18.9367 23.0819 18.9375 23.136C18.9384 23.19 18.9499 23.2434 18.9714 23.293C18.9929 23.3426 19.024 23.3874 19.0629 23.4249L21.5431 25.8441C21.6198 25.9188 21.7225 25.9607 21.8295 25.9607C21.9366 25.9607 22.0393 25.9188 22.1159 25.8441L26.5846 21.4857C26.6235 21.4482 26.6546 21.4033 26.6761 21.3537C26.6976 21.3042 26.7091 21.2508 26.7099 21.1968C26.7107 21.1427 26.7008 21.0891 26.6809 21.0388C26.6609 20.9886 26.6311 20.9428 26.5934 20.9042C26.5557 20.8655 26.5106 20.8346 26.4609 20.8134C26.4112 20.7921 26.3578 20.7809 26.3038 20.7804C26.2497 20.7799 26.1961 20.7901 26.146 20.8103C26.0959 20.8306 26.0503 20.8606 26.0118 20.8985L21.8296 24.9776L19.6356 22.8377Z" fill="#06679E"/>
</svg>
