<svg width="35" height="35" viewBox="0 0 35 35" fill="none" xmlns="http://www.w3.org/2000/svg">
<path d="M31.1158 13.3038C31.0061 13.1366 30.8195 13.0358 30.6196 13.0358C30.4198 13.0358 30.2332 13.1366 30.1237 13.3038L26.3356 19.0793C26.216 19.2685 26.2062 19.5069 26.3099 19.705C26.4112 19.9014 26.6108 20.0274 26.8318 20.0349H29.865C29.372 23.133 27.7976 25.9562 25.4211 28.0039C23.1139 29.9823 20.2177 31.1077 17.4754 31.1077C15.6878 31.1077 13.8177 30.6205 12.0669 29.7077C10.2466 28.7564 8.66814 27.4016 7.4518 25.7467C7.25858 25.4825 6.8878 25.4246 6.62333 25.6178C6.35915 25.811 6.3015 26.1818 6.49442 26.446C7.81852 28.2469 9.53716 29.7208 11.5185 30.7555C13.4379 31.7566 15.4978 32.2852 17.4754 32.2852C20.497 32.2852 23.675 31.0646 26.1934 28.9047C28.837 26.6349 30.5678 23.4835 31.0649 20.0349H34.4077C34.6281 20.0262 34.8271 19.9005 34.9294 19.7053C35.0319 19.51 35.0221 19.2748 34.9036 19.0886L31.1158 13.3038ZM27.9303 18.8484L30.6196 14.7475L33.3092 18.8484H27.9303Z" fill="url(#paint0_linear)"/>
<path d="M8.69027 15.3219C8.58859 15.1258 8.38901 14.9995 8.16827 14.9923H5.1351C5.62841 11.8942 7.20279 9.07103 9.57928 7.02304C11.8865 5.04485 14.7821 3.91947 17.5247 3.91947C19.3123 3.91947 21.1825 4.40641 22.9332 5.31917C24.7533 6.27046 26.332 7.62527 27.5483 9.28018C27.7413 9.54465 28.1123 9.60229 28.3765 9.40908C28.641 9.21616 28.6986 8.84509 28.5054 8.5809C27.1813 6.78029 25.463 5.30614 23.4816 4.27171C21.5622 3.2706 19.5024 2.74194 17.5245 2.74194C14.5032 2.74194 11.3251 3.96234 8.80643 6.12215C6.16315 8.39204 4.43235 11.5434 3.93498 14.9923H0.59243C0.371988 15.0007 0.172982 15.1264 0.070437 15.3216C-0.031818 15.5172 -0.0219691 15.7524 0.0962179 15.9383L3.88429 21.7185C3.9932 21.8865 4.17917 21.9882 4.37934 21.9888C4.5795 21.9896 4.76634 21.8891 4.87642 21.722L8.6642 15.9378C8.78383 15.7524 8.79397 15.5169 8.69027 15.3219V15.3219ZM4.38021 20.2794L1.69087 16.1788H7.06983L4.38021 20.2794Z" fill="url(#paint1_linear)"/>
<path d="M23.2999 11.2845C23.4563 11.2825 23.6052 11.2179 23.7139 11.1055C23.8222 10.9928 23.8813 10.8416 23.8775 10.6852V9.0398C23.8801 8.88628 23.8202 8.73825 23.711 8.62992C23.602 8.52158 23.4534 8.46277 23.2999 8.46654H11.6999C11.5464 8.46277 11.3981 8.52158 11.2889 8.62992C11.18 8.73825 11.1197 8.88628 11.1226 9.0398V10.6852C11.1188 10.8416 11.1776 10.9928 11.2863 11.1055C11.3946 11.2179 11.5438 11.2825 11.6999 11.2845H11.9383V23.7428H11.6999C11.5438 23.7448 11.3946 23.8091 11.2863 23.9218C11.1776 24.0342 11.1188 24.1857 11.1226 24.3418V25.9875C11.1197 26.141 11.18 26.289 11.2889 26.3971C11.3981 26.5054 11.5464 26.5645 11.6999 26.5607H23.2999C23.4534 26.5645 23.602 26.5054 23.711 26.3971C23.8202 26.289 23.8801 26.141 23.8775 25.9875V24.3418C23.8813 24.1857 23.8222 24.0342 23.7139 23.9218C23.6052 23.8091 23.4563 23.7448 23.2999 23.7428H23.136V11.2845H23.2999ZM12.3091 9.65304H22.691V10.098H12.3091V9.65304ZM18.4577 18.8473C19.4458 18.8487 20.2456 19.6514 20.2439 20.6398V21.3698H14.7563V20.6398C14.7542 19.6514 15.554 18.8487 16.5424 18.8473C16.6991 18.847 16.8492 18.7841 16.9592 18.6729C17.0696 18.5614 17.1307 18.4108 17.1293 18.254V16.8144C17.1307 16.6577 17.0696 16.5067 16.9592 16.3955C16.8492 16.284 16.6991 16.2211 16.5424 16.2211C15.554 16.2194 14.7545 15.417 14.7563 14.4286V11.2845H20.2439V14.4286C20.2456 15.417 19.4458 16.2197 18.4577 16.2211C18.301 16.2214 18.151 16.2843 18.0406 16.3955C17.9305 16.507 17.8694 16.6577 17.8708 16.8144V18.2543C17.8694 18.4108 17.9305 18.5617 18.0409 18.6729C18.151 18.7841 18.301 18.847 18.4577 18.8473ZM14.7563 23.7428V22.5563H20.2439V23.7428H14.7563ZM13.1248 11.2845H13.5698V14.4286C13.5753 15.839 14.5634 17.0545 15.9428 17.3485V17.7202C14.5634 18.0142 13.5753 19.2297 13.5698 20.6401V21.8889C13.5698 21.9132 13.5646 21.9378 13.5646 21.963C13.5646 21.9879 13.5698 22.0129 13.5698 22.0372V23.7428H13.1248V11.2845ZM22.691 25.3742H12.3091V24.9293H22.691V25.3742ZM21.9495 23.7428H21.4304V22.2585C21.5361 22.0757 21.5361 21.8503 21.4304 21.6676V20.6398C21.4246 19.2294 20.4365 18.0139 19.0574 17.7202V17.3482C20.4365 17.0542 21.4246 15.8387 21.4304 14.4286V11.2845H21.9495V23.7428Z" fill="url(#paint2_linear)"/>
<defs>
<linearGradient id="paint0_linear" x1="20.6903" y1="0.012567" x2="20.6903" y2="33.8293" gradientUnits="userSpaceOnUse">
<stop stop-color="#06679E"/>
<stop offset="1" stop-color="#06679E"/>
</linearGradient>
<linearGradient id="paint1_linear" x1="14.3097" y1="0.0125367" x2="14.3097" y2="33.8293" gradientUnits="userSpaceOnUse">
<stop stop-color="#06679E"/>
<stop offset="1" stop-color="#06679E"/>
</linearGradient>
<linearGradient id="paint2_linear" x1="17.5" y1="0.0125983" x2="17.5" y2="33.8293" gradientUnits="userSpaceOnUse">
<stop stop-color="#06679E"/>
<stop offset="1" stop-color="#06679E"/>
</linearGradient>
</defs>
</svg>
