<svg width="35" height="35" viewBox="0 0 35 35" fill="none" xmlns="http://www.w3.org/2000/svg">
<path d="M13.308 15.939C17.7094 15.939 21.2775 12.3712 21.2775 7.96951C21.2775 3.56815 17.7094 0 13.308 0C8.90666 0 5.3385 3.56815 5.3385 7.96951C5.34262 12.3694 8.90813 15.9349 13.308 15.939ZM13.308 1.50796C16.8768 1.50796 19.7696 4.40106 19.7696 7.96951C19.7696 11.5383 16.8768 14.4311 13.308 14.4311C9.73928 14.4311 6.84646 11.5383 6.84646 7.96951C6.85059 4.40254 9.74104 1.51208 13.308 1.50796Z" fill="#06679E"/>
<path d="M2.07376 30.2573C2.23192 27.2941 3.38557 24.5874 5.34592 22.5741C7.43439 20.4252 10.2618 19.2415 13.3004 19.2415H13.3231C15.8398 19.2271 18.2864 20.07 20.2597 21.6316C20.3728 21.7223 20.4859 21.8201 20.599 21.9108L21.5792 20.7722C21.4511 20.6591 21.3229 20.5536 21.1945 20.4479C18.9479 18.661 16.2183 17.7262 13.3004 17.7262C9.84713 17.7336 6.64271 19.0757 4.26767 21.5185C1.85493 23.9916 0.535466 27.3618 0.543124 31.0186C0.544302 31.4348 0.881237 31.7714 1.2971 31.7726L22.484 31.7349V30.227L2.07376 30.2573Z" fill="#06679E"/>
<path d="M29.7521 23.7654L26.3441 26.5401L25.1151 25.0999C24.8444 24.7836 24.3685 24.7465 24.0521 25.0171C23.7355 25.2878 23.6984 25.7638 23.9691 26.0801L25.6806 28.0781C25.8246 28.2451 26.0334 28.3414 26.2537 28.342C26.4266 28.3435 26.5945 28.2849 26.7288 28.1762L30.7098 24.9417C31.0332 24.677 31.0812 24.2004 30.8173 23.8762C30.5534 23.5522 30.0772 23.5024 29.7521 23.7654V23.7654Z" fill="#06679E"/>
<path d="M34.02 20.3952L27.5207 16.9345C27.2969 16.8123 27.0256 16.8153 26.8044 16.9419L20.486 20.4028C20.2442 20.536 20.094 20.7901 20.094 21.0661V25.59C20.0984 29.4795 22.4034 32.9979 25.9674 34.555L26.8421 34.9394C26.937 34.9818 27.04 35.0024 27.1437 34.9997C27.2471 34.998 27.3493 34.9777 27.4453 34.9394L28.4328 34.5097C32.062 32.9873 34.4223 29.435 34.4196 25.4996V21.0661C34.4199 20.786 34.2665 20.5283 34.02 20.3952V20.3952ZM32.9117 25.4996C32.9131 28.8315 30.9118 31.838 27.8373 33.1224H27.8297L27.1437 33.4164L26.5706 33.1675C23.5552 31.8501 21.6052 28.8734 21.602 25.5826V21.5035L27.1738 18.4499L32.9117 21.5111V25.4996Z" fill="#06679E"/>
</svg>
