<?xml version="1.0" encoding="utf-8"?>
<!-- Generator: Adobe Illustrator 22.0.0, SVG Export Plug-In . SVG Version: 6.00 Build 0)  -->
<svg version="1.1" id="Layer_1" xmlns="http://www.w3.org/2000/svg" xmlns:xlink="http://www.w3.org/1999/xlink" x="0px" y="0px"
	 viewBox="0 0 35 26" style="enable-background:new 0 0 35 26;" xml:space="preserve">
<style type="text/css">
	.st0{fill:#06679E;}
	.st1{fill:#06679E;stroke:#06679E;}
	.st2{fill:url(#SVGID_1_);stroke:#06679E;}
</style>
<path class="st0" d="M17.5,20.3H1.7c-0.1,0-0.3-0.1-0.4-0.2c-0.1-0.1-0.2-0.2-0.2-0.4V1.7c0-0.1,0.1-0.3,0.2-0.4
	c0.1-0.1,0.2-0.2,0.4-0.2h24.8c0.1,0,0.3,0.1,0.4,0.2c0.1,0.1,0.2,0.2,0.2,0.4v13c0,0.1,0.1,0.3,0.2,0.4c0.1,0.1,0.2,0.2,0.4,0.2
	c0.1,0,0.3-0.1,0.4-0.2c0.1-0.1,0.2-0.2,0.2-0.4v-13c0-0.4-0.2-0.9-0.5-1.2C27.4,0.2,27,0,26.5,0H1.7C1.2,0,0.8,0.2,0.5,0.5
	C0.2,0.8,0,1.2,0,1.7v18.1c0,0.4,0.2,0.9,0.5,1.2s0.7,0.5,1.2,0.5h15.8c0.1,0,0.3-0.1,0.4-0.2c0.1-0.1,0.2-0.2,0.2-0.4
	c0-0.1-0.1-0.3-0.2-0.4C17.8,20.4,17.6,20.3,17.5,20.3z"/>
<path class="st0" d="M12.7,13.5c0.1,0,0.2,0.1,0.3,0.1c0.1,0,0.2,0,0.3-0.1l3.7-2.3c0.1-0.1,0.2-0.1,0.2-0.2c0-0.1,0.1-0.2,0.1-0.3
	c0-0.1,0-0.2-0.1-0.3c0-0.1-0.1-0.2-0.2-0.2L13.3,8c-0.1-0.1-0.2-0.1-0.3-0.1c-0.1,0-0.2,0-0.3,0.1c-0.1,0-0.2,0.1-0.2,0.2
	c-0.1,0.1-0.1,0.2-0.1,0.3V13c0,0.1,0,0.2,0.1,0.3C12.5,13.4,12.6,13.4,12.7,13.5z M13.5,9.5l2.1,1.3L13.5,12V9.5z"/>
<path class="st0" d="M14.1,15.8c1,0,2-0.3,2.8-0.9c0.8-0.6,1.5-1.4,1.9-2.3c0.4-0.9,0.5-1.9,0.3-2.9c-0.2-1-0.7-1.9-1.4-2.6
	c-0.7-0.7-1.6-1.2-2.6-1.4c-1-0.2-2-0.1-2.9,0.3c-0.9,0.4-1.7,1-2.3,1.9C9.3,8.7,9,9.7,9,10.7c0,1.3,0.5,2.6,1.5,3.6
	C11.5,15.3,12.8,15.8,14.1,15.8z M14.1,6.8c0.8,0,1.5,0.2,2.2,0.7c0.6,0.4,1.2,1.1,1.5,1.8c0.3,0.7,0.4,1.5,0.2,2.3
	c-0.2,0.8-0.5,1.5-1.1,2c-0.6,0.6-1.3,0.9-2,1.1c-0.8,0.2-1.6,0.1-2.3-0.2c-0.7-0.3-1.3-0.8-1.8-1.5c-0.4-0.6-0.7-1.4-0.7-2.2
	c0-1,0.4-2.1,1.2-2.8S13.1,6.8,14.1,6.8L14.1,6.8z"/>
<path class="st1" d="M3.9,19.2h2.3c0-0.2,0-0.4,0-0.6c0-0.2,0-0.4,0-0.6H3.9c0,0.2,0,0.4,0,0.6C3.9,18.8,3.9,19,3.9,19.2z"/>
<path class="st0" d="M9,18.1c-0.1,0-0.3,0.1-0.4,0.2c-0.1,0.1-0.2,0.2-0.2,0.4c0,0.1,0.1,0.3,0.2,0.4c0.1,0.1,0.2,0.2,0.4,0.2h0.6
	c0.1,0,0.3-0.1,0.4-0.2c0.1-0.1,0.2-0.2,0.2-0.4c0-0.1-0.1-0.3-0.2-0.4c-0.1-0.1-0.2-0.2-0.4-0.2H9z"/>
<path class="st0" d="M27.7,16.9v0.6h-7.9c-0.1,0-0.3,0.1-0.4,0.2c-0.1,0.1-0.2,0.2-0.2,0.4c0,0.1,0.1,0.3,0.2,0.4
	c0.1,0.1,0.2,0.2,0.4,0.2h7.9v0.6c0,0.1,0.1,0.3,0.2,0.4c0.1,0.1,0.2,0.2,0.4,0.2h1.7c0.1,0,0.3-0.1,0.4-0.2
	c0.1-0.1,0.2-0.2,0.2-0.4v-0.6h4c0.1,0,0.3-0.1,0.4-0.2c0.1-0.1,0.2-0.2,0.2-0.4c0-0.1-0.1-0.3-0.2-0.4c-0.1-0.1-0.2-0.2-0.4-0.2h-4
	v-0.6c0-0.1-0.1-0.3-0.2-0.4c-0.1-0.1-0.2-0.2-0.4-0.2h-1.7c-0.1,0-0.3,0.1-0.4,0.2C27.7,16.6,27.7,16.8,27.7,16.9z M28.8,17.5h0.6
	v1.1h-0.6V17.5z"/>
<path class="st0" d="M34.4,23.1h-4v-0.6c0-0.1-0.1-0.3-0.2-0.4c-0.1-0.1-0.2-0.2-0.4-0.2h-1.7c-0.1,0-0.3,0.1-0.4,0.2
	c-0.1,0.1-0.2,0.2-0.2,0.4v0.6h-7.9c-0.1,0-0.3,0.1-0.4,0.2c-0.1,0.1-0.2,0.2-0.2,0.4c0,0.1,0.1,0.3,0.2,0.4
	c0.1,0.1,0.2,0.2,0.4,0.2h7.9v0.6c0,0.1,0.1,0.3,0.2,0.4c0.1,0.1,0.2,0.2,0.4,0.2h1.7c0.1,0,0.3-0.1,0.4-0.2
	c0.1-0.1,0.2-0.2,0.2-0.4v-0.6h4c0.1,0,0.3-0.1,0.4-0.2c0.1-0.1,0.2-0.2,0.2-0.4c0-0.1-0.1-0.3-0.2-0.4
	C34.7,23.2,34.6,23.1,34.4,23.1z M29.4,24.3h-0.6v-1.1h0.6V24.3z"/>
<path class="st0" d="M24.3,22.6H26c0.1,0,0.3-0.1,0.4-0.2c0.1-0.1,0.2-0.2,0.2-0.4v-0.6h5.1c0.1,0,0.3-0.1,0.4-0.2s0.2-0.2,0.2-0.4
	c0-0.1-0.1-0.3-0.2-0.4c-0.1-0.1-0.2-0.2-0.4-0.2h-5.1v-0.6c0-0.1-0.1-0.3-0.2-0.4c-0.1-0.1-0.2-0.2-0.4-0.2h-1.7
	c-0.1,0-0.3,0.1-0.4,0.2c-0.1,0.1-0.2,0.2-0.2,0.4v0.6h-4c-0.1,0-0.3,0.1-0.4,0.2c-0.1,0.1-0.2,0.2-0.2,0.4c0,0.1,0.1,0.3,0.2,0.4
	c0.1,0.1,0.2,0.2,0.4,0.2h4V22c0,0.1,0.1,0.3,0.2,0.4C24,22.5,24.1,22.6,24.3,22.6z M24.8,20.3h0.6v1.1h-0.6V20.3z"/>
<linearGradient id="SVGID_1_" gradientUnits="userSpaceOnUse" x1="7.2258" y1="-46.1775" x2="61.9175" y2="63.2066" gradientTransform="matrix(1 0 0 -1 0 28)">
	<stop  offset="0" style="stop-color:#06679E"/>
	<stop  offset="0.518" style="stop-color:#06679E"/>
	<stop  offset="1" style="stop-color:#006DF0"/>
</linearGradient>
<path class="st2" d="M34.4,20.3h-0.6h-0.6c-0.1,0-0.3,0.1-0.4,0.2c-0.1,0.1-0.2,0.2-0.2,0.4c0,0.1,0.1,0.3,0.2,0.4
	c0.1,0.1,0.2,0.2,0.4,0.2h0.6h0.6c0.1,0,0.3-0.1,0.4-0.2c0.1-0.1,0.2-0.2,0.2-0.4c0-0.1-0.1-0.3-0.2-0.4
	C34.7,20.4,34.6,20.3,34.4,20.3z"/>
</svg>
